<svg width="20" height="20" viewBox="0 0 20 20" fill="none" xmlns="http://www.w3.org/2000/svg">
<path fill-rule="evenodd" clip-rule="evenodd" d="M4.4848 15.5153C3.57772 14.6083 2.90833 13.4915 2.53593 12.264C2.16353 11.0365 2.09961 9.73612 2.34985 8.47801C2.60008 7.21991 3.15673 6.04293 3.9705 5.05135C4.78426 4.05976 5.83002 3.28418 7.01513 2.7933C8.20024 2.30243 9.48812 2.11141 10.7647 2.23717C12.0413 2.36292 13.2671 2.80158 14.3337 3.51428C15.4002 4.22697 16.2745 5.1917 16.8792 6.32302C17.4838 7.45433 17.8001 8.71731 17.8 10.0001C17.8 10.3979 17.642 10.7794 17.3607 11.0607C17.0794 11.342 16.6978 11.5001 16.3 11.5001C15.9022 11.5001 15.5206 11.342 15.2393 11.0607C14.958 10.7794 14.8 10.3979 14.8 10.0001C14.7999 8.83913 14.379 7.71758 13.6154 6.84317C12.8517 5.96875 11.7971 5.40072 10.6467 5.2443C9.4964 5.08788 8.32834 5.35367 7.35895 5.99244C6.38955 6.6312 5.6845 7.59965 5.3744 8.71839C5.0643 9.83714 5.17017 11.0304 5.67239 12.077C6.17461 13.1237 7.03915 13.9529 8.10587 14.411C9.17258 14.8691 10.3692 14.9251 11.474 14.5686C12.5788 14.2121 13.517 13.4673 14.1148 12.4721C14.5908 12.8927 15.1782 13.1671 15.8063 13.2621C16.4345 13.3571 17.0767 13.2688 17.6559 13.0078C18.2351 12.7468 18.7266 12.3241 19.0714 11.7906C19.4163 11.2571 19.5998 10.6353 19.6 10.0001C19.5999 7.77905 18.8297 5.62678 17.4207 3.90997C16.0116 2.19316 14.0509 1.01803 11.8725 0.584804C9.6942 0.151581 7.43303 0.48707 5.47431 1.53411C3.51559 2.58115 1.98052 4.27495 1.13064 6.32692C0.28076 8.37889 0.168665 10.6621 0.813452 12.7874C1.45824 14.9128 2.82001 16.7488 4.66675 17.9827C6.51348 19.2165 8.73092 19.7719 10.9412 19.5542C13.1515 19.3364 15.2179 18.359 16.7884 16.7885C16.9474 16.6178 17.0339 16.3922 17.0298 16.159C17.0257 15.9259 16.9312 15.7034 16.7663 15.5385C16.6014 15.3736 16.379 15.2792 16.1458 15.275C15.9127 15.2709 15.687 15.3575 15.5164 15.5165C14.7921 16.2409 13.9322 16.8155 12.9858 17.2076C12.0394 17.5996 11.025 17.8014 10.0006 17.8014C8.9762 17.8014 7.96183 17.5996 7.01543 17.2076C6.06902 16.8155 5.20911 16.2409 4.4848 15.5165V15.5153ZM10 7.00006C9.20435 7.00006 8.44129 7.31613 7.87868 7.87874C7.31607 8.44135 7 9.20441 7 10.0001C7 10.7957 7.31607 11.5588 7.87868 12.1214C8.44129 12.684 9.20435 13.0001 10 13.0001C10.7956 13.0001 11.5587 12.684 12.1213 12.1214C12.6839 11.5588 13 10.7957 13 10.0001C13 9.20441 12.6839 8.44135 12.1213 7.87874C11.5587 7.31613 10.7956 7.00006 10 7.00006Z" fill="#969696"/>
</svg>
